<svg xmlns="http://www.w3.org/2000/svg" width="3842" height="513" viewBox="0 0 3842 513" version="1.1"><path d="M 2517.511 1.250 C 2517.276 1.938, 2506.549 52.225, 2493.672 113 C 2470.973 220.138, 2470.223 223.363, 2469.047 219 C 2462.683 195.391, 2453.129 178.162, 2437.999 163.012 C 2411.242 136.219, 2370.894 120.764, 2315.024 115.907 C 2297.486 114.382, 2245.113 115.314, 2228 117.455 C 2159.530 126.020, 2107.106 148.108, 2067.769 184.965 C 2052.456 199.311, 2040.081 215.257, 2027.784 236.484 C 2024.603 241.975, 2022 246.096, 2022 245.641 C 2022 245.186, 2022.972 240.243, 2024.159 234.657 C 2027.020 221.202, 2027.278 197.902, 2024.683 187.500 C 2015.814 151.960, 1983.725 130.438, 1924.902 120.577 C 1899.161 116.261, 1886.354 115.500, 1839.500 115.500 C 1784.011 115.500, 1761.037 117.672, 1728.500 125.993 C 1692.412 135.223, 1666.721 148.687, 1644.758 169.881 C 1638.841 175.590, 1634.005 179.865, 1634.011 179.381 C 1634.017 178.896, 1636.415 167.250, 1639.339 153.500 L 1644.656 128.500 1596.828 128.240 C 1570.523 128.098, 1549.004 127.648, 1549.009 127.240 C 1549.014 126.833, 1554.189 101.994, 1560.509 72.042 C 1566.829 42.090, 1572 16.999, 1572 16.284 C 1572 15.229, 1560.739 15.033, 1512.270 15.242 L 1452.539 15.500 1441.340 68.500 C 1435.180 97.650, 1429.863 122.962, 1429.524 124.750 L 1428.909 128 1372.455 128 C 1341.405 128, 1316.004 127.662, 1316.009 127.250 C 1316.014 126.838, 1321.189 101.994, 1327.509 72.042 C 1333.829 42.090, 1339 16.999, 1339 16.284 C 1339 15.229, 1327.739 15.033, 1279.270 15.242 L 1219.539 15.500 1208.340 68.500 C 1202.180 97.650, 1196.864 122.957, 1196.527 124.738 L 1195.914 127.976 1158.279 128.238 L 1120.645 128.500 1112.889 165 C 1108.623 185.075, 1104.858 202.962, 1104.521 204.750 L 1103.909 208 1141.522 208 C 1176.882 208, 1179.103 208.105, 1178.597 209.750 C 1178.301 210.713, 1173.555 232.650, 1168.050 258.500 C 1162.545 284.350, 1157.790 306.547, 1157.483 307.826 C 1156.985 309.898, 1156.438 309.427, 1152.462 303.497 C 1150.008 299.838, 1148 296.649, 1148 296.411 C 1148 296.174, 1146.425 293.739, 1144.500 291 C 1142.575 288.261, 1141 285.786, 1141 285.500 C 1141 285.214, 1139.425 282.739, 1137.500 280 C 1135.575 277.261, 1134 274.829, 1134 274.594 C 1134 274.359, 1131.810 270.867, 1129.133 266.834 C 1123.730 258.691, 1119.074 251.430, 1117.520 248.721 C 1116.959 247.743, 1113.827 242.793, 1110.560 237.721 C 1107.293 232.649, 1102.177 224.675, 1099.192 220 C 1096.206 215.325, 1092.284 209.250, 1090.476 206.500 C 1087.292 201.657, 1077.661 186.591, 1047.009 138.500 C 1030.732 112.963, 1005.056 72.885, 983.746 39.750 L 969.758 18 905.772 18 C 854.975 18, 841.892 18.258, 842.302 19.250 C 843.594 22.379, 875.431 95.054, 877.458 99.500 C 878.712 102.250, 883.002 112.150, 886.992 121.500 C 890.983 130.850, 895.067 140.300, 896.069 142.500 C 897.070 144.700, 903.366 159.100, 910.058 174.500 C 916.751 189.900, 923.021 204.300, 923.991 206.500 C 924.961 208.700, 928.106 215.900, 930.979 222.500 C 933.853 229.100, 938.858 240.470, 942.102 247.767 C 945.346 255.063, 948 261.249, 948 261.512 C 948 261.776, 949.575 265.401, 951.500 269.569 C 953.425 273.736, 955 277.343, 955 277.584 C 955 277.998, 958.771 286.464, 959.820 288.405 C 960.635 289.911, 958.461 288.424, 939 274.151 C 928.215 266.241, 922.330 261.947, 915.390 256.923 C 912.030 254.490, 903.705 248.418, 896.890 243.430 C 890.076 238.441, 873.770 226.516, 860.655 216.930 C 831.641 195.722, 824.979 190.842, 770.500 150.884 C 717.453 111.977, 625.087 44.532, 619 40.260 C 616.525 38.523, 608.875 32.944, 602 27.862 C 590.916 19.667, 588.877 18.539, 584 17.895 C 580.975 17.495, 549.186 17.131, 513.358 17.084 L 448.217 17 447.665 19.250 C 447.361 20.488, 433.785 84.275, 417.496 161 C 401.207 237.725, 386.553 305.774, 384.932 312.221 C 369.384 374.056, 335.421 407.537, 278.168 417.471 C 263.149 420.077, 241.397 421.095, 225.181 419.951 C 176.900 416.545, 150.315 399.765, 141.290 367 C 138.562 357.094, 138.789 326.439, 141.702 311.500 C 143.656 301.476, 202.386 24.483, 203.666 19.250 L 204.217 17 138.127 17 L 72.038 17 71.506 19.250 C 65.241 45.752, 2.625 342.079, 1.537 350.376 C -4.642 397.514, 5.751 434.220, 32.869 461.034 C 59.878 487.740, 100.336 503.228, 162.538 510.672 C 181.471 512.938, 254.936 513.285, 275 511.203 C 356.342 502.764, 413.788 480.296, 454.373 441.048 C 480.414 415.865, 497.416 387.032, 508.056 350.013 C 509.717 344.231, 521.875 289.100, 535.073 227.500 C 548.272 165.900, 559.302 114.735, 559.586 113.801 C 560.342 111.314, 562.465 112.448, 571.058 119.924 C 575.214 123.541, 581.964 129.249, 586.058 132.609 C 590.151 135.969, 616.225 157.720, 644 180.946 C 671.775 204.171, 722.625 246.623, 757 275.284 C 791.375 303.945, 819.725 327.658, 820 327.980 C 820.275 328.302, 831.300 337.539, 844.500 348.507 C 857.700 359.475, 868.725 368.712, 869 369.034 C 869.626 369.766, 916.575 408.832, 920.062 411.523 C 921.471 412.610, 925.071 415.600, 928.062 418.167 C 936.549 425.451, 961.182 446.118, 966.004 450 C 968.394 451.925, 975.141 457.550, 980.995 462.500 C 1004.898 482.709, 1015.638 491.668, 1019.711 494.797 L 1024.003 498.094 1143.752 498.039 C 1209.613 498.008, 1268.900 497.752, 1275.500 497.468 C 1295.038 496.629, 1318.697 494.805, 1319.930 494.044 C 1320.988 493.390, 1340.309 413.976, 1339.586 413.252 C 1339.409 413.075, 1329.192 413.427, 1316.882 414.035 C 1285.340 415.591, 1273.676 414.166, 1266.518 407.882 C 1262.030 403.941, 1260.599 398.726, 1261.337 389 C 1261.650 384.875, 1270.173 342.575, 1280.277 295 L 1298.648 208.500 1355.394 208.242 C 1409.145 207.997, 1412.112 208.076, 1411.600 209.742 C 1410.518 213.262, 1371.138 398.770, 1369.513 408 C 1368.593 413.225, 1367.607 423.575, 1367.321 431 C 1366.469 453.164, 1370.265 465.332, 1381.528 476.546 C 1391.378 486.353, 1404.781 492.017, 1429.388 496.773 C 1436.488 498.145, 1456.971 498.386, 1593.500 498.705 L 1749.500 499.070 1761.504 496.556 C 1789.219 490.751, 1812.310 482.988, 1832.396 472.722 C 1842.561 467.527, 1859.234 457.048, 1860.441 455.096 C 1862.144 452.340, 1862.518 455.151, 1862.605 471.351 C 1862.656 480.894, 1863.017 489.219, 1863.408 489.851 C 1863.930 490.696, 1879.901 491, 1923.670 491 L 1983.223 491 1982.620 487.750 C 1979.680 471.909, 1979.664 454.677, 1982.568 434.500 C 1984.383 421.892, 1994.257 375, 1995.097 375 C 1995.442 375, 1996.021 378.277, 1996.384 382.281 C 1997.641 396.154, 2002.524 413.009, 2009.049 426 C 2031.517 470.733, 2080.670 496.737, 2154.677 503.043 C 2173.499 504.647, 2229.569 503.773, 2248 501.588 C 2306.595 494.643, 2349.993 478.267, 2384.268 450.171 C 2400.391 436.954, 2418.338 416.273, 2430.409 397 C 2432.993 392.875, 2434.853 390.625, 2434.544 392 C 2431.841 404.015, 2414 489.012, 2414 489.877 C 2414 490.695, 2430.233 491, 2473.751 491 L 2533.502 491 2552.831 399.750 C 2565.890 338.104, 2573.427 304.671, 2576.064 296.697 C 2590.675 252.509, 2619.513 225.020, 2661.620 215.141 C 2674.708 212.071, 2692.791 210.797, 2706.332 211.991 C 2735.299 214.546, 2751.334 224.414, 2758.176 243.894 C 2760.701 251.084, 2761.601 266.217, 2760.086 276 C 2759.447 280.125, 2749.041 329.744, 2736.962 386.265 C 2724.883 442.785, 2715 489.473, 2715 490.015 C 2715 490.651, 2736.168 490.998, 2774.750 490.996 L 2834.500 490.991 2847 431.960 L 2859.500 372.928 2861.155 383.461 C 2865.920 413.793, 2877.767 437.284, 2897.807 456.136 C 2923.383 480.196, 2960.215 494.860, 3012 501.599 C 3031.300 504.111, 3082.850 504.649, 3104.730 502.568 C 3192.567 494.210, 3257.400 461.478, 3301.944 403 C 3305.924 397.775, 3309.529 393.370, 3309.956 393.211 C 3310.383 393.053, 3311.039 394.853, 3311.413 397.211 C 3312.407 403.468, 3318.395 420.854, 3322.075 428.171 C 3333.892 451.663, 3354.995 472.044, 3380.888 484.973 C 3390.764 489.904, 3408.806 496.086, 3421.596 498.920 C 3444.225 503.935, 3448.264 504.102, 3569.500 505.017 C 3632.200 505.490, 3695.011 505.905, 3709.080 505.939 L 3734.660 506 3738.363 489.750 C 3741.139 477.564, 3838.545 18.523, 3841.674 2.882 L 3842.250 0 3782.316 -0 L 3722.381 -0 3705.582 79.750 C 3696.342 123.612, 3688.099 162.575, 3687.263 166.334 L 3685.745 173.169 3681.744 166.834 C 3665.739 141.493, 3630.931 124.743, 3584.256 119.922 C 3567.656 118.208, 3531.645 119.234, 3516.445 121.855 C 3479.178 128.282, 3446.880 141.016, 3416.500 161.261 C 3389.383 179.332, 3362.223 207.148, 3345.811 233.660 L 3339.521 243.819 3338.237 236.160 C 3326.896 168.530, 3279.854 129.271, 3196 117.453 C 3180.474 115.265, 3130.070 114.363, 3110.310 115.919 C 3005.475 124.177, 2933.012 164.319, 2891.743 237 L 2886.917 245.500 2887.708 239 C 2888.144 235.425, 2888.457 225.075, 2888.404 216 C 2888.325 202.425, 2887.924 198.082, 2886.144 191.500 C 2879.366 166.447, 2863.335 147.607, 2838.500 135.509 C 2821.111 127.038, 2804.942 122.492, 2783.500 120.044 C 2770.151 118.520, 2741.846 118.773, 2728.301 120.537 C 2679.311 126.918, 2632.282 147.599, 2605.681 174.459 C 2601.846 178.332, 2598.985 180.600, 2599.323 179.500 C 2599.661 178.400, 2608.288 138.125, 2618.495 90 C 2628.702 41.875, 2637.252 1.938, 2637.495 1.250 C 2637.846 0.259, 2625.506 0, 2577.937 0 C 2530.831 0, 2517.846 0.269, 2517.511 1.250 M 1788 187.118 C 1771.745 188.977, 1755.861 195.104, 1745.576 203.482 L 1740.040 207.991 1635.844 208.245 L 1531.648 208.500 1513.277 295 C 1503.173 342.575, 1494.650 384.875, 1494.337 389 C 1492.977 406.925, 1499.752 412.996, 1522.893 414.590 C 1528.294 414.962, 1535.188 414.957, 1538.211 414.579 L 1543.708 413.893 1544.340 404.995 C 1544.687 400.102, 1545.921 391.714, 1547.082 386.356 C 1561.480 319.901, 1611.732 284.905, 1705.500 276.031 C 1711.550 275.459, 1746.650 272.977, 1783.500 270.517 C 1868.370 264.850, 1868.597 264.827, 1880.773 260.864 C 1892.960 256.896, 1900.627 247.906, 1904.536 233 C 1911.972 204.641, 1897.239 191.363, 1853.576 187.073 C 1840.929 185.831, 1798.999 185.859, 1788 187.118 M 3107 191.011 C 3067.573 196.417, 3033.996 215.483, 3011.676 245.136 C 3005.876 252.843, 2998 266.904, 2998 269.554 C 2998 270.807, 3013.013 271, 3110.393 271 C 3211.958 271, 3222.844 270.848, 3223.393 269.418 C 3225.554 263.788, 3222.862 247.062, 3218.107 236.577 C 3207.786 213.813, 3187.620 199.037, 3158 192.535 C 3149.181 190.599, 3117.013 189.638, 3107 191.011 M 2252 199.693 C 2232.437 200.843, 2211.184 206.327, 2194.500 214.530 C 2156.628 233.150, 2131.865 268.688, 2123.448 316.500 C 2120.930 330.806, 2121.139 351.886, 2123.904 362.500 C 2133.706 400.122, 2164.399 419.158, 2215.500 419.309 C 2234.115 419.364, 2245.204 417.686, 2260.873 412.444 C 2292.165 401.974, 2315.897 381.189, 2327.997 353.656 L 2331.354 346.016 2387.885 345.758 L 2444.416 345.500 2453.166 304.500 C 2457.978 281.950, 2461.934 263.387, 2461.958 263.250 C 2461.981 263.113, 2436.674 263, 2405.721 263 L 2349.442 263 2348.162 254.866 C 2342.891 221.368, 2320.676 203.686, 2279.302 200.056 C 2267.906 199.056, 2263.772 199.001, 2252 199.693 M 3557.252 208.014 C 3496.277 214.324, 3450.504 253.461, 3437.457 310.440 C 3435.093 320.766, 3434.175 334.906, 3435.168 345.708 C 3438.259 379.332, 3460.012 403.056, 3496 412.051 C 3528.286 420.121, 3569.187 413.857, 3599.456 396.207 C 3620.127 384.154, 3638.731 364.459, 3649.294 343.447 C 3653.074 335.927, 3658.472 319.698, 3660.586 309.500 C 3663.126 297.241, 3663.156 274.203, 3660.643 265 C 3652.820 236.345, 3630.134 216.631, 3597.500 210.127 C 3585.500 207.735, 3568.546 206.845, 3557.252 208.014 M 1884.500 317.767 C 1876.256 321.156, 1858.701 325.495, 1845.500 327.406 C 1839.450 328.281, 1813.575 330.797, 1788 332.997 C 1762.425 335.197, 1737.041 337.681, 1731.592 338.517 C 1720.300 340.250, 1706.005 344.751, 1699.158 348.730 C 1684.707 357.128, 1675.041 374.735, 1675.012 392.712 C 1674.981 411.231, 1687.002 423.896, 1710.500 430.101 C 1720.624 432.774, 1746.181 433.789, 1760.620 432.091 C 1819.188 425.204, 1864.879 397.245, 1880.547 358.708 C 1883.297 351.943, 1891.744 316.234, 1890.767 315.500 C 1890.620 315.390, 1887.800 316.410, 1884.500 317.767 M 2981.457 348.558 C 2979.071 370.836, 2989.543 394.036, 3008.500 408.469 C 3028.140 423.422, 3052.267 429.762, 3085.500 428.703 C 3126.787 427.388, 3155.307 416.190, 3179.250 391.894 L 3188.999 382 3248.750 382 L 3308.500 382 3308.500 362 L 3308.500 342 3145.330 342 L 2982.159 342 2981.457 348.558" stroke="none" fill="#fffcfc" fill-rule="evenodd"/><path d="" stroke="none" fill="#fcfcfc" fill-rule="evenodd"/></svg>